<?xml version="1.0" ?><svg viewBox="0 0 64 64" xmlns="http://www.w3.org/2000/svg"><g id="Outline"><g data-name="Outline" id="Outline-2"><path d="M35.92,29.49l8.79-8.78a1,1,0,0,0,.26-.94l-4-17A1,1,0,0,0,40,2H24a1,1,0,0,0-1,.77l-4,17a1,1,0,0,0,.26.94l8.79,8.78a16.5,16.5,0,1,0,7.84,0Zm-.05-2.78L30.38,4H35.1l4.47,19Zm7-7-1.67,1.66L37.15,4h2.06ZM28.32,4l5.9,24.37-.71.71q-.6-.06-1.2-.06l-6-25Zm.59,19.47-.78,3.24L24.43,23l2.16-9.17Zm1,4.25.25,1.06-.41-.41ZM24.51,5.22l1,4.32L22.77,21.35,21.1,19.69ZM32,60A14.5,14.5,0,1,1,46.5,45.5,14.51,14.51,0,0,1,32,60Z"/><path d="M37.78,41.64l-2.43-.48a.24.24,0,0,1-.17-.12L34,38.93a2.28,2.28,0,0,0-3.94,0L28.82,41a.24.24,0,0,1-.17.12l-2.43.48a2.25,2.25,0,0,0-1.71,1.51,2.18,2.18,0,0,0,.5,2.2l1.67,1.78a.22.22,0,0,1,.07.17l-.29,2.4a2.19,2.19,0,0,0,.89,2.06,2.3,2.3,0,0,0,2.29.24l2.24-1a.26.26,0,0,1,.24,0l2.24,1a2.32,2.32,0,0,0,2.29-.24,2.19,2.19,0,0,0,.89-2.06l-.29-2.4a.25.25,0,0,1,.06-.17L39,45.35a2.18,2.18,0,0,0,.5-2.2A2.25,2.25,0,0,0,37.78,41.64ZM37.54,44l-1.68,1.78a2.21,2.21,0,0,0-.59,1.78l.29,2.4c0,.19-.16.31-.38.23l-2.24-1a2.28,2.28,0,0,0-1.88,0l-2.24,1c-.22.09-.39,0-.38-.23l.29-2.4a2.24,2.24,0,0,0-.59-1.79L26.46,44a.23.23,0,0,1,.15-.38L29,43.13A2.3,2.3,0,0,0,30.56,42l1.21-2.11c.13-.22.33-.22.46,0L33.44,42A2.3,2.3,0,0,0,35,43.13l2.42.47A.23.23,0,0,1,37.54,44Z"/><path d="M36.35,33.89a1,1,0,0,0-.7,1.88,10.39,10.39,0,1,1-7.3,0,1,1,0,0,0-.7-1.88,12.39,12.39,0,1,0,8.7,0Z"/><circle cx="32" cy="34" r="1"/></g></g></svg>